<svg width="139" height="139" viewBox="0 0 139 139" fill="none" xmlns="http://www.w3.org/2000/svg">
<path d="M69.5 139C107.884 139 139 107.884 139 69.5C139 31.1162 107.884 0 69.5 0C31.1162 0 0 31.1162 0 69.5C0 107.884 31.1162 139 69.5 139Z" fill="white"/>
<path d="M98.4417 48.7489C97.6144 48.8903 96.6914 49.5721 96.3047 50.3829L99.5186 54.8357C100.442 54.6279 100.77 54.3992 101.244 53.9627C101.39 53.8172 101.523 53.6466 101.639 53.4803C101.843 53.1935 101.963 52.8775 102.055 52.5407C102.317 51.6052 102.055 50.3995 101.277 49.6178C100.903 49.2395 100.421 48.9568 99.9136 48.8112C99.4271 48.6699 98.924 48.6699 98.4417 48.7531V48.7489Z" fill="#008573"/>
<path d="M110.74 89.0078C110.162 88.7043 109.48 88.5214 108.794 88.3302C108.113 88.1347 107.381 87.9684 106.711 87.5776C106.146 87.2533 105.601 86.8167 105.244 86.2347C105.202 86.1681 105.169 86.1016 105.131 86.0351V96.5707C105.127 97.5727 106.059 98.5165 107.219 98.9946C107.227 98.9821 110.383 94.6665 111.613 92.1594C111.879 91.5898 111.979 90.9495 111.825 90.3632C111.755 90.0722 111.618 89.7853 111.439 89.5566C111.272 89.3404 111.023 89.1533 110.732 89.0078H110.74Z" fill="#008573"/>
<path d="M112.075 89.0536C112.075 89.0536 111.006 86.1765 110.541 84.3055C110.329 83.4574 110.05 81.5406 110.05 81.5323C107.688 81.6071 105.136 82.8212 105.136 84.6464C105.136 86.7003 108.079 87.457 108.212 87.4903C108.458 87.5527 108.711 87.6108 108.965 87.669C109.659 87.8354 110.378 87.9851 111.089 88.3177C111.439 88.484 111.796 88.7085 112.079 89.0494L112.075 89.0536Z" fill="#008573"/>
<path d="M99.7264 27.8357C99.7514 27.9687 99.7971 28.1974 99.8262 28.3221C100.454 30.8833 101.622 33.4402 103.119 35.5025C105.439 38.6956 108.295 41.1653 112.096 42.1756C112.029 42.0259 111.967 41.9095 111.896 41.7765C111.825 41.6392 111.755 41.5062 111.68 41.369C111.455 40.9699 111.231 40.579 110.977 40.1923C110.378 39.2818 109.726 38.4128 109.044 37.5605C108.358 36.7082 107.643 35.8725 106.932 35.041C107.726 35.806 108.516 36.5585 109.289 37.3484C110.062 38.1384 110.807 38.9575 111.505 39.814C111.597 39.9263 111.684 40.0468 111.775 40.1674C111.958 40.4085 112.133 40.6497 112.312 40.9033C112.486 41.1569 112.669 41.4439 112.836 41.6933C111.992 37.8766 110.524 34.1013 107.634 31.4321C105.385 29.3574 103.086 28.6007 100.217 27.9105C100.096 27.8814 99.872 27.8648 99.7348 27.8357H99.7264Z" fill="#008573"/>
<path d="M123.055 64.7352C122.694 66.9347 122.307 69.1008 121.866 71.2794C121.6 68.8929 121.226 66.8515 119.97 64.7186C117.841 61.1014 114.357 59.0433 110.37 57.8293C110.245 57.7918 109.954 57.7129 109.817 57.6796C109.838 57.8085 109.921 58.1245 109.95 58.2285C111.035 62.3779 113.085 65.388 116.178 68.1445C118.199 69.9448 119.5 71.4665 120.856 73.7324C120.823 73.4372 120.81 73.1878 120.773 72.9009C120.735 72.614 120.694 72.3147 120.635 72.0237C120.586 71.7867 120.544 71.5497 120.473 71.3086C119.987 69.6413 119.209 68.1944 118.203 66.7849C119.413 68.0988 120.369 69.4667 121.08 71.109C121.122 71.2005 121.151 71.2961 121.184 71.3875C121.309 71.7285 121.425 72.0777 121.525 72.427C121.554 72.5226 121.575 72.6224 121.604 72.718C121.662 72.9508 121.716 73.1836 121.766 73.4164C121.783 73.3873 121.8 73.3583 121.816 73.3292C121.858 73.2585 121.899 73.1836 121.941 73.1129C122.07 72.8843 122.199 72.6598 122.323 72.4311C122.752 71.6412 123.167 70.8678 123.55 70.0529C124.373 68.3025 125.038 66.5272 125.558 64.6646C125.25 66.5938 124.768 68.4522 124.145 70.3023C124.078 70.5019 123.999 70.7016 123.924 70.9011C123.804 71.2296 123.687 71.5455 123.558 71.874C123.429 72.2024 123.288 72.5517 123.155 72.8802C123.217 72.8095 123.355 72.6432 123.421 72.5684C126.099 69.3669 128.735 65.7539 129.687 61.7542C130.576 58.0081 129.816 54.5572 128.514 51.1313C126.922 53.3141 125.583 55.3513 124.681 57.9332C123.937 60.0619 123.429 62.4818 123.055 64.7436V64.7352Z" fill="#008573"/>
<path d="M120.777 59.667C120.128 57.7545 119.126 56.0789 117.937 54.4158C117.92 54.395 117.9 54.3618 117.883 54.341C115.26 50.9192 111.817 49.6303 107.576 49.4474C107.451 49.4432 107.181 49.4391 107.04 49.4391C107.081 49.5513 107.227 49.834 107.268 49.9255C109.052 53.63 111.493 56.1163 114.944 58.0746C117.097 59.297 118.594 60.3613 120.34 62.0036C120.249 61.75 120.191 61.5338 120.099 61.2885C120.008 61.0432 119.92 60.7979 119.808 60.5567C119.596 60.0869 119.388 59.6337 119.11 59.1847C118.224 57.7503 117.131 56.5404 115.883 55.4054C117.305 56.3949 118.548 57.4842 119.646 58.823C119.725 58.9228 119.8 59.0267 119.875 59.1307C120.116 59.4591 120.344 59.8084 120.552 60.1534C120.669 60.3447 120.785 60.5609 120.881 60.7438C120.976 60.9267 121.039 61.0599 121.126 61.2303C121.126 61.2386 121.13 61.251 121.134 61.2469C121.168 61.118 121.205 60.9808 121.238 60.8477C121.321 60.5068 121.409 60.1659 121.484 59.8208C121.637 59.1389 121.795 58.4613 121.916 57.7669C122.24 55.9001 122.423 54.0333 122.432 52.1374C122.639 54.0458 122.664 55.9334 122.552 57.8459C122.54 58.0496 122.515 58.2533 122.502 58.4571C122.477 58.7938 122.44 59.1432 122.411 59.4758C122.378 59.8084 122.311 60.2533 122.303 60.4944C123.338 58.5444 125.142 54.1622 125.388 52.3911C126.103 47.1773 124.693 43.0029 121.858 39.0199C121.101 41.4687 120.328 43.5809 120.037 46.1171C119.775 48.3996 119.816 50.1501 120.049 52.707C120.216 54.5447 120.602 57.6006 120.785 59.6545L120.777 59.667Z" fill="#008573"/>
<path d="M114.973 43.9759C115.684 45.5808 116.407 47.2272 116.923 48.9443C116.162 47.5598 115.247 46.3416 114.179 45.3022C113.667 44.8033 113.118 44.3459 112.536 43.926C109.942 42.055 106.653 40.9657 102.687 40.6788L102.046 40.6331L102.367 41.1902C105.198 46.1254 108.445 47.485 111.883 48.9194C113.538 49.6095 115.247 50.3288 116.943 51.4846C116.844 51.2767 116.736 51.0689 116.623 50.8651C116.507 50.6573 116.386 50.4494 116.257 50.2456C116.041 49.9047 115.813 49.5763 115.559 49.2562C114.586 48.0172 113.343 46.9778 111.958 46.1462C113.438 46.7865 114.844 47.6679 116.037 48.8279C116.062 48.8529 116.087 48.8819 116.116 48.9069C116.444 49.2312 116.756 49.5763 117.047 49.938C117.118 50.0253 117.189 50.1085 117.255 50.2C117.334 50.3039 117.409 50.4079 117.484 50.516C117.484 50.3746 117.492 50.2374 117.492 50.096C117.492 49.9838 117.496 49.8715 117.501 49.7592C117.505 49.3476 117.509 48.9319 117.501 48.5202C117.501 48.0047 117.484 47.4891 117.459 46.9694C117.372 45.14 117.114 43.3065 116.582 41.5311C117.318 43.2316 117.796 45.0568 118.099 46.9028C118.149 47.2022 118.191 47.5058 118.232 47.8093C118.278 48.1461 118.324 48.4786 118.361 48.8154C118.403 49.1647 118.44 49.5098 118.478 49.859C120.536 40.8202 120.868 37.3485 113.297 29.794L112.794 29.2909L112.715 29.9977C112.291 33.8477 112.241 36.5004 113.168 39.4856C113.638 40.9948 114.282 42.4459 114.964 43.9842L114.973 43.9759Z" fill="#008573"/>
<path d="M122.311 83.1122C122.136 83.3825 121.962 83.6486 121.8 83.8898C121.638 84.1351 121.459 84.4136 121.334 84.5716C124.772 82.6549 129.026 78.9837 130.414 75.5536C132.061 71.479 131.712 68.9803 132.023 64.9723C130.165 66.81 128.922 67.604 127.221 69.7743C124.905 72.7263 123.068 76.7634 121.583 80.3889C121.33 81.0043 121.022 81.7943 120.777 82.4179C121.006 74.8551 118.166 70.8221 111.763 67.0636C111.63 66.9846 111.393 66.8598 111.243 66.7933C111.243 66.9305 111.264 67.2548 111.272 67.3629C111.709 71.8782 113.077 75.4787 115.754 79.1043C116.956 80.7299 118.12 82.3556 119.135 84.0852C119.293 84.3596 119.355 84.53 119.471 84.8044C119.467 84.5217 119.467 84.2348 119.455 83.9563C119.442 83.6777 119.421 83.4158 119.392 83.1455C119.384 83.0541 119.38 82.9667 119.363 82.8752C119.022 81.129 118.436 79.5075 117.704 77.8901C118.644 79.4451 119.43 81.021 119.987 82.7506C120.016 82.8379 120.028 82.9293 120.049 83.0208C120.112 83.2869 120.162 83.5571 120.207 83.8273C120.224 83.9271 120.241 84.0269 120.253 84.1225C120.265 84.2181 120.274 84.3055 120.282 84.397C120.315 84.3554 120.353 84.3138 120.386 84.2722C120.461 84.1849 120.532 84.0977 120.606 84.0062C120.777 83.7942 120.952 83.5904 121.126 83.3784C121.534 82.8795 121.945 82.3888 122.34 81.8732C123.554 80.2975 124.693 78.676 125.749 76.9921C124.876 78.7966 123.903 80.5469 122.864 82.2557C122.689 82.5426 122.49 82.8378 122.319 83.1081L122.311 83.1122Z" fill="#008573"/>
<path d="M120.453 89.2823C119.417 90.8331 118.353 92.4213 117.064 94.047C117.226 93.3984 117.912 89.6107 117.762 87.669C117.205 80.4845 111.9 76.8715 111.173 76.0316L111.064 76.4932C110.865 77.3538 110.773 78.2228 110.757 79.0918C110.744 79.8609 110.794 80.6301 110.894 81.391C110.894 81.3951 110.894 81.3993 110.894 81.4035C111.023 82.3805 111.235 83.3492 111.501 84.2972C111.742 85.1578 112.025 86.0018 112.328 86.8208C112.366 86.9206 112.403 87.0163 112.441 87.1161C112.74 87.9061 113.06 88.6669 113.38 89.4029C113.38 89.407 113.384 89.4111 113.389 89.4194C113.688 90.1013 113.987 90.7583 114.27 91.3778C114.515 91.9141 114.748 92.4296 114.96 92.9161C115.168 93.3901 115.351 93.8349 115.497 94.2299C115.513 94.2715 115.526 94.3172 115.542 94.3588C115.551 94.3089 115.555 94.2548 115.559 94.2049C115.559 94.1924 115.559 94.1759 115.563 94.1634C115.584 93.9721 115.6 93.7808 115.613 93.5896C115.617 93.5106 115.625 93.4358 115.63 93.3568C115.634 93.2654 115.634 93.1738 115.638 93.0824C115.638 92.9826 115.646 92.8828 115.646 92.783C115.659 91.6105 115.542 90.4256 115.351 89.2531C115.305 88.9621 115.255 88.6752 115.197 88.3841C115.293 88.671 115.38 88.9579 115.463 89.249C115.854 90.5753 116.158 91.939 116.266 93.3485C116.291 93.6354 116.299 93.9264 116.303 94.2174C116.307 94.471 116.303 94.7247 116.295 94.9783C116.291 95.128 116.282 95.2777 116.27 95.4315C116.27 95.4689 116.262 95.5104 116.262 95.5478C116.262 95.5811 116.257 95.6145 116.253 95.6477C116.395 95.5479 116.532 95.4439 116.673 95.3441C116.856 95.2111 117.043 95.0739 117.226 94.9367C117.916 94.4211 118.598 93.9015 119.263 93.3568C120.798 92.1054 122.253 90.7457 123.558 89.2406C122.419 90.8788 121.105 92.4047 119.696 93.8308C119.363 94.1675 119.026 94.4959 118.69 94.8244C118.473 95.0323 118.249 95.2402 118.029 95.4481C117.808 95.6518 117.592 95.8598 117.372 96.0593C127.483 92.4629 129.87 87.6275 131.462 79.2913L130.818 79.6115C124.51 82.7381 123.238 85.1204 120.453 89.2948V89.2823Z" fill="#008573"/>
<path d="M118.436 87.062C118.436 87.7855 119.022 88.3717 119.746 88.3717C120.469 88.3717 121.055 87.7855 121.055 87.062C121.055 86.3386 120.469 85.7524 119.746 85.7524C119.022 85.7524 118.436 86.3386 118.436 87.062Z" fill="#008573"/>
<path d="M121.791 76.8715C122.415 76.8715 122.922 76.3643 122.922 75.7406C122.922 75.117 122.415 74.6098 121.791 74.6098C121.168 74.6098 120.66 75.117 120.66 75.7406C120.66 76.3643 121.168 76.8715 121.791 76.8715Z" fill="#008573"/>
<path d="M122.536 63.9577C122.536 63.3673 122.057 62.8893 121.467 62.8893C120.877 62.8893 120.399 63.3673 120.399 63.9577C120.399 64.5481 120.877 65.0263 121.467 65.0263C122.057 65.0263 122.536 64.5481 122.536 63.9577Z" fill="#008573"/>
<path d="M118.503 53.8254C119.09 53.8254 119.567 53.3489 119.567 52.761C119.567 52.1732 119.09 51.6967 118.503 51.6967C117.915 51.6967 117.438 52.1732 117.438 52.761C117.438 53.3489 117.915 53.8254 118.503 53.8254Z" fill="#008573"/>
<path d="M37.6978 53.9627C38.1718 54.3992 38.5003 54.6279 39.4233 54.8357L42.6372 50.3829C42.2505 49.5721 41.3317 48.8903 40.5001 48.7489C40.0137 48.6658 39.5106 48.6657 39.0283 48.8071C38.521 48.9568 38.0388 49.2395 37.6646 49.6137C36.8912 50.3953 36.6251 51.601 36.8871 52.5365C36.9827 52.8733 37.0991 53.1893 37.3028 53.4762C37.4193 53.6425 37.5482 53.813 37.6978 53.9585V53.9627Z" fill="#008573"/>
<path d="M31.719 98.9987C32.8832 98.5248 33.8145 97.5769 33.8145 96.5749V86.0392C33.7729 86.1058 33.7397 86.1764 33.6981 86.2388C33.3405 86.8209 32.8 87.2574 32.2304 87.5817C31.5569 87.9684 30.8293 88.1389 30.1474 88.3343C29.4614 88.5256 28.7795 88.7084 28.2016 89.012C27.9147 89.1616 27.6653 89.3488 27.4948 89.5608C27.316 89.7936 27.183 90.0805 27.1081 90.3674C26.9585 90.9536 27.0541 91.5981 27.3202 92.1635C28.5509 94.6706 31.7024 98.9821 31.7149 98.9987H31.719Z" fill="#008573"/>
<path d="M46.9071 63.1511C46.6992 62.1242 46.1005 61.3176 45.0153 61.3135H45.0028C43.926 61.3259 43.3314 62.1283 43.1236 63.1511C43.1236 63.1636 43.1194 63.172 43.1194 63.1844C43.0654 63.4671 43.0404 63.7623 43.0404 64.0616C43.0404 64.149 43.0404 64.2322 43.0487 64.3195V64.332C43.1069 65.3049 43.477 66.1198 44.2378 66.4399C44.2628 66.4524 44.2877 66.4606 44.3127 66.469C44.3335 66.4773 44.3501 66.4815 44.3709 66.4856C44.3958 66.4939 44.4208 66.5023 44.4457 66.5064C44.5954 66.5522 44.7575 66.5729 44.9322 66.5812C44.9613 66.5812 44.9904 66.5812 45.0236 66.5812H45.0403C45.0652 66.5812 45.086 66.5812 45.1109 66.5812C45.2856 66.5729 45.4477 66.548 45.5974 66.5064C45.6223 66.5023 45.6473 66.4939 45.6722 66.4856C45.693 66.4815 45.7096 66.4731 45.7304 66.469C46.5412 66.1738 46.932 65.3381 46.9944 64.332V64.2447C46.9944 63.8538 46.9736 63.5004 46.9195 63.1844C46.9195 63.172 46.9154 63.1636 46.9154 63.1511H46.9071Z" fill="#008573"/>
<path d="M52.4493 33.8519C52.3038 34.2178 52.0876 34.9162 51.9504 35.515C51.8215 36.0804 51.7799 36.5794 51.7757 36.6002C51.2352 35.7187 50.4079 35.1158 49.3892 34.9536C49.3767 34.9536 48.9818 34.9121 48.7947 34.9121C48.6699 34.9121 48.462 34.9328 48.3415 34.9495C47.5474 35.07 46.9694 35.4401 46.5121 35.8559C46.3458 36.0056 46.0381 36.4047 45.9841 36.4796L36.596 49.4932C36.966 49.0816 37.7477 48.3913 38.7497 48.092C39.2652 47.9381 40.0303 47.8134 40.6996 47.9174C41.3358 48.0172 42.2962 48.2084 43.3107 49.1522C44.3127 50.0835 44.5746 51.2809 44.6619 51.7258C44.6827 51.8256 44.7742 52.8608 44.5497 53.763C44.3917 54.4033 43.8886 55.3554 43.6516 55.659C43.398 55.9833 42.7535 56.9063 41.4439 57.584C39.4149 58.6318 37.4774 58.1369 37.1282 58.0496C36.7415 57.954 35.9682 57.6547 35.5815 57.3928L31.6317 62.8601C33.8353 65.3298 35.3903 68.8763 36.7083 72.5725C37.3652 74.4851 37.9348 76.4516 38.4295 78.6718C39.5687 83.7816 40.0053 88.9953 39.7517 92.5377C39.7517 92.5377 39.6353 94.4544 39.2777 95.9802C39.1946 96.342 39.1655 96.7162 39.1655 97.0322C39.1655 97.8388 39.3609 98.8533 39.9928 99.7846C40.8784 101.094 42.3752 101.955 44.0715 101.955C44.4374 101.955 44.7991 101.917 45.1401 101.838C46.7117 101.493 47.9257 100.446 48.5369 99.1277L66.1447 112.312C67.0885 113.018 68.1778 113.434 69.4792 113.455H69.4833C70.7847 113.434 71.8699 113.018 72.8137 112.312L90.4215 99.1277C91.0285 100.446 92.2426 101.493 93.8183 101.838C94.1593 101.917 94.521 101.955 94.8869 101.955C96.5874 101.955 98.08 101.094 98.9656 99.7846C99.5934 98.8574 99.7929 97.8388 99.7929 97.0322C99.7929 96.7203 99.768 96.342 99.6807 95.9802C99.3231 94.4544 99.2067 92.5377 99.2067 92.5377C98.9489 88.9953 99.3855 83.7816 100.529 78.6718C101.024 76.4558 101.589 74.4892 102.25 72.5725C103.572 68.8763 105.123 65.3298 107.327 62.8601L103.377 57.3928C102.99 57.6547 102.217 57.954 101.83 58.0496C101.481 58.1328 99.5476 58.6276 97.5145 57.584C96.2048 56.9105 95.5604 55.9874 95.3068 55.659C95.0656 55.3513 94.5667 54.3991 94.4087 53.763C94.1842 52.8608 94.2757 51.8256 94.2965 51.7258C94.3796 51.2809 94.6415 50.0835 95.6477 49.1522C96.6622 48.2084 97.6268 48.0172 98.2588 47.9174C98.9281 47.8134 99.6932 47.9381 100.209 48.092C101.211 48.3913 101.997 49.0774 102.362 49.4932L92.9743 36.4796C92.9203 36.4047 92.6126 36.0056 92.4463 35.8559C91.9889 35.4401 91.411 35.07 90.6169 34.9495C90.4963 34.9328 90.2926 34.9121 90.1637 34.9121C89.9725 34.9121 89.5775 34.9495 89.5692 34.9536C88.5464 35.1158 87.719 35.7187 87.1827 36.6002C87.1827 36.5794 87.1369 36.0846 87.008 35.515C86.8708 34.9162 86.6546 34.2136 86.5091 33.8519C85.8522 32.1971 84.925 30.7794 83.7941 29.8397C82.788 29.004 81.7236 28.6049 80.8048 28.767C80.0813 28.8626 79.52 29.3116 79.1334 29.8771C78.7301 30.4633 78.5139 31.1743 78.4266 31.877C78.3434 32.5838 78.3185 33.2906 78.4266 33.9933C78.4723 34.3467 78.5347 34.7001 78.6137 35.0493C78.6469 35.2281 78.6968 35.3944 78.7425 35.5607C78.7883 35.7187 78.8548 35.914 78.9088 36.0928L79.1209 36.7248C76.4184 35.8974 73.4456 35.515 70.2608 35.4609L70.0696 35.2198L69.4833 34.3799V34.3841L68.9013 35.2156L68.71 35.4568C65.5294 35.5108 62.5566 35.8974 59.85 36.7206L60.062 36.0928C60.1161 35.9182 60.1868 35.7229 60.2283 35.5607C60.2782 35.3986 60.324 35.2281 60.3572 35.0493C60.4321 34.7001 60.4986 34.3467 60.5443 33.9933C60.6524 33.2906 60.6275 32.5796 60.5443 31.877C60.457 31.1743 60.2408 30.4592 59.8375 29.8771C59.4508 29.3158 58.8895 28.8626 58.1661 28.767C57.2431 28.6049 56.1829 29.0082 55.1767 29.8397C54.0458 30.7794 53.1187 32.1971 52.4617 33.8519H52.4493ZM40.5791 68.9636H39.1821V61.7957L37.993 62.9973L37.4857 62.4942L39.1821 60.7771H40.5791V68.9636ZM44.7617 70.7056H43.8512C43.8512 70.7056 45.5018 68.6143 46.2003 66.8889C45.8884 67.0552 45.4976 67.1758 45.0153 67.1965C44.9654 67.1965 44.9155 67.2007 44.8615 67.2007C44.2711 67.2007 43.7597 67.0719 43.3315 66.839C43.1984 66.7725 43.0695 66.6977 42.9448 66.6104C42.6371 66.3941 42.371 66.1114 42.1715 65.783C41.9719 65.4587 41.8305 65.0886 41.7598 64.7103C41.685 64.3319 41.6809 63.9411 41.7349 63.5586C41.8347 62.7936 42.1964 62.066 42.7411 61.5255C43.2317 61.0432 43.8803 60.7355 44.533 60.6732C44.6328 60.6607 44.7326 60.6482 44.8365 60.644C44.8906 60.644 44.9488 60.6399 45.0028 60.6399C45.0652 60.6399 45.1317 60.6399 45.1941 60.644C45.3064 60.6482 45.4186 60.6607 45.5267 60.6732C45.8344 60.7064 46.1379 60.7854 46.4331 60.8977C46.7532 61.0266 47.0567 61.2178 47.3145 61.4589C47.5765 61.7001 47.7927 61.9953 47.9507 62.3154C48.1128 62.6356 48.2209 62.9806 48.2791 63.3257C48.2957 63.413 48.3082 63.5004 48.3165 63.5877C48.329 63.675 48.3373 63.7623 48.3415 63.8496C48.3456 63.9369 48.3498 64.0243 48.3415 64.1116C48.3415 64.1989 48.3415 64.2861 48.3332 64.3735C48.329 64.4816 48.3165 64.5938 48.3041 64.7019C48.2957 64.8475 48.2542 65.1634 48.0879 65.6457C47.7511 66.6394 46.9029 68.3358 44.7575 70.6974L44.7617 70.7056ZM63.9869 106.096C63.8455 106.824 63.7499 107.651 63.8913 108.399C64.0243 109.152 64.2072 109.884 64.6272 110.553C63.2094 108.769 63.2551 106.936 63.3216 106.096C63.3882 105.264 63.6501 104.408 64.0783 103.676C64.3528 103.21 64.6438 102.799 65.0305 102.412C59.7294 100.288 53.4014 97.9053 45.7554 95.8265C51.8589 96.5582 59.6753 98.5539 67.1301 102.117C65.097 103.102 64.2031 104.982 63.9869 106.096ZM96.2589 69.3793C96.392 69.4791 96.5292 69.5623 96.6747 69.633C96.8784 69.7286 97.0904 69.7993 97.3108 69.8409C97.7432 69.9282 98.1881 69.9157 98.5997 69.7993C99.0071 69.6829 99.3772 69.4708 99.6516 69.1631C99.7223 69.0883 99.7846 69.0052 99.8428 68.9221C99.901 68.8389 99.9593 68.7432 99.9967 68.6684C100.076 68.4979 100.117 68.2942 100.142 68.0822C100.196 67.6664 100.18 67.2049 100.117 66.8016C100.03 66.4108 99.8096 66.0407 99.4853 65.7705C99.3273 65.6374 99.1402 65.5252 98.9448 65.4587C98.7577 65.3963 98.5207 65.3755 98.2962 65.363C98.0716 65.3547 97.8471 65.363 97.6268 65.4087C97.5187 65.4337 97.4106 65.4628 97.3066 65.5127C97.2068 65.5584 97.1071 65.6208 97.0364 65.7164L96.6206 65.2674L96.8659 62.6273L96.9158 62.0909L97.0364 60.7813H101.473L101.389 62.1783H97.6268L97.3815 64.7934C97.6642 64.6894 98.0218 64.6063 98.45 64.6063C100.346 64.6063 101.622 65.7289 101.622 67.5375C101.622 69.6164 100.03 70.8013 98.1465 70.8013C96.8285 70.8013 96.076 70.1984 95.7808 69.8991L96.2631 69.3835L96.2589 69.3793ZM90.5254 69.3253C90.7832 69.5291 91.0576 69.6953 91.357 69.7909C91.7478 69.9198 92.1594 69.9448 92.5627 69.8907C92.6625 69.8783 92.7706 69.8617 92.8704 69.845C92.9702 69.8243 93.0658 69.8034 93.1573 69.7701C93.3444 69.7078 93.5107 69.6205 93.6645 69.5166C93.8142 69.4085 93.9389 69.2754 94.0387 69.1175C94.0886 69.0426 94.1343 68.9594 94.1717 68.8763C94.205 68.7931 94.2383 68.71 94.2591 68.6185C94.3048 68.4356 94.3256 68.236 94.3422 68.0364C94.3588 67.8368 94.3588 67.6331 94.3422 67.4294C94.3256 67.2298 94.3173 67.0262 94.2632 66.8557C94.2092 66.6769 94.1302 66.5064 94.0221 66.3484C93.8059 66.0407 93.4816 65.7871 93.1032 65.7164C92.9119 65.6748 92.7041 65.679 92.5087 65.7247C92.4089 65.7497 92.3132 65.7829 92.2176 65.8328C92.122 65.8744 92.0305 65.9285 91.9515 65.9992L91.9432 65.9909L91.4609 65.4711L93.993 62.1741H90.3674L90.4506 60.7771H95.4149V61.4922L92.6833 65.0595C92.8038 65.0304 92.941 65.0138 93.0949 65.0138C94.6873 65.0138 95.814 66.0782 95.814 67.762C95.814 69.6746 94.4462 70.7972 92.596 70.7972C91.1449 70.7972 90.33 70.1278 90.0515 69.845L90.5379 69.3253H90.5254ZM93.1947 95.8265C85.5487 97.9053 79.2207 100.288 73.9196 102.412C74.3063 102.795 74.5973 103.206 74.8717 103.676C75.3 104.404 75.5619 105.264 75.6284 106.096C75.6949 106.94 75.7407 108.769 74.3229 110.553C74.7428 109.884 74.9258 109.148 75.0588 108.399C75.2002 107.651 75.1045 106.824 74.9632 106.096C74.7428 104.978 73.8489 103.102 71.82 102.117C79.2747 98.558 87.0912 96.5582 93.1947 95.8265ZM69.4418 40.4709C80.0314 40.4709 88.6462 52.7653 88.6462 67.8785C88.6462 82.9917 80.0314 95.2859 69.4418 95.2859C58.8521 95.2859 50.2374 82.9917 50.2374 67.8785C50.2374 52.7653 58.8521 40.4709 69.4418 40.4709Z" fill="#008573"/>
<path d="M80.2061 28.5924C79.8568 28.6881 77.9484 29.1205 75.2626 29.4157C74.0194 29.5487 72.5892 29.6485 71.1548 29.6817C70.6018 29.6942 70.0239 29.715 69.4667 29.7067H69.4626C68.9096 29.7192 68.3317 29.6942 67.7787 29.6817C66.3485 29.6485 64.9182 29.5487 63.6709 29.4157C60.9851 29.1246 59.0767 28.6881 58.7274 28.5924C59.9415 28.9167 60.5984 29.7856 60.9975 30.8043C61.617 32.3717 61.3925 34.409 61.089 35.5191C62.9142 34.8165 65.8703 34.3841 68.0822 34.3093L68.9761 33.012L69.4543 32.3177H69.4584L69.9366 33.0079L70.8305 34.3051C73.0424 34.38 75.9985 34.8123 77.8237 35.515C77.5202 34.4049 77.2998 32.3717 77.9152 30.8001C78.3143 29.7815 78.9712 28.9126 80.1853 28.5883L80.2061 28.5924Z" fill="#008573"/>
<path d="M29.9812 87.669C30.2348 87.6108 30.4843 87.5527 30.7337 87.4903C30.8668 87.457 33.8104 86.7003 33.8104 84.6464C33.8104 82.817 31.2576 81.603 28.896 81.5323C28.896 81.5406 28.6174 83.4532 28.4054 84.3055C27.9397 86.1765 26.8712 89.0536 26.8712 89.0536C27.1539 88.7127 27.5115 88.4881 27.8607 88.3218C28.5717 87.9892 29.2868 87.8395 29.9853 87.6732L29.9812 87.669Z" fill="#008573"/>
<path d="M68.8555 81.6404C68.8555 81.6404 68.8555 81.6404 68.8514 81.6404C67.8702 80.6592 66.6603 79.3787 67.3421 77.8736C67.3505 77.857 67.6207 77.3954 67.9242 77.1377L67.8785 74.7345C67.0095 75.1835 66.2154 75.8363 65.7373 76.7011C65.2342 77.6075 65.176 78.7259 65.4753 79.7071C65.5211 79.8609 65.5793 80.0065 65.6416 80.1478C65.6416 80.152 65.6458 80.1562 65.65 80.1603C65.9867 80.8921 66.5771 81.4616 67.1841 81.9605C67.6748 82.3638 68.1903 82.7381 68.6643 83.158C69.0343 83.4823 69.4002 83.8232 69.6829 84.2265C69.8867 84.5133 70.0613 84.8211 70.2109 85.1412C70.3066 85.345 70.3689 85.557 70.4396 85.769C70.6683 86.426 70.7556 87.1161 70.7639 87.8063C70.7639 87.9851 70.7639 88.168 70.7556 88.3551C70.7556 88.3676 70.7556 88.3758 70.7556 88.3883C70.7806 88.3259 70.8097 88.2594 70.8346 88.1888C70.897 88.01 70.9593 87.8021 71.0134 87.5651C71.109 87.1327 71.1797 86.6089 71.1797 85.9728C71.1797 83.9189 69.9449 82.7089 68.8555 81.6404Z" fill="#008573"/>
<path d="M71.5955 51.3558C71.5705 51.3517 71.5497 51.3475 71.5248 51.3433L71.4583 54.4658C71.5913 54.4865 71.7285 54.5073 71.8657 54.5322C71.8699 54.5322 71.8782 54.5322 71.8823 54.5322C71.9447 54.5447 72.0029 54.5572 72.0611 54.5697C72.0736 54.5697 72.0819 54.5739 72.0902 54.5739C72.1443 54.5863 72.1983 54.5987 72.2524 54.6112C72.269 54.6112 72.2815 54.6154 72.2981 54.6237C72.348 54.6362 72.3937 54.6487 72.4436 54.6612C72.4603 54.6653 72.481 54.6736 72.4977 54.6778C72.5434 54.6903 72.585 54.7027 72.6307 54.7152C72.6515 54.7193 72.6723 54.7276 72.6931 54.736C72.7305 54.7484 72.7721 54.7609 72.8095 54.7734C72.8344 54.7817 72.8552 54.7901 72.8802 54.7942C72.9135 54.8067 72.9509 54.8191 72.9841 54.8316C73.0091 54.8399 73.034 54.8482 73.0548 54.8607C73.0839 54.8732 73.1172 54.8815 73.1463 54.894C73.1712 54.9065 73.1962 54.9147 73.217 54.9272C73.2461 54.9397 73.271 54.948 73.296 54.9605C73.3209 54.973 73.3458 54.9813 73.3666 54.9938C73.3874 55.0063 73.4124 55.0145 73.4332 55.027C73.4539 55.0395 73.4789 55.0561 73.4997 55.0686C73.5163 55.0811 73.5371 55.0894 73.5537 55.1019C73.5745 55.1144 73.5953 55.1309 73.6161 55.1476C73.6286 55.16 73.6452 55.1684 73.6577 55.1767C73.6785 55.1933 73.6951 55.2099 73.7159 55.2307C73.7242 55.239 73.7325 55.2474 73.7408 55.2515C73.7616 55.2765 73.7866 55.3055 73.799 55.3305C73.9861 55.634 74.1317 55.8377 74.2689 55.9708C74.3104 56.0124 74.352 56.0456 74.3936 56.0747C74.4352 56.1038 74.5058 56.1496 74.589 56.1953C74.9715 56.4115 75.6991 56.7691 76.0359 56.8938C76.0941 56.9146 76.144 56.9312 76.1731 56.9354C76.2188 56.9437 76.277 56.9521 76.3435 56.9604C76.3685 56.9604 76.3934 56.9645 76.4184 56.9687C76.4392 56.9687 76.4641 56.9729 76.4849 56.977C76.8175 57.0186 77.279 57.0851 77.6823 57.2764C77.6948 57.2805 77.7031 57.2847 77.7114 57.2888C78.0482 57.451 78.3143 57.5632 78.4972 57.638C78.5014 57.638 78.5097 57.6422 78.5139 57.6422C78.5513 57.6588 78.5887 57.6713 78.622 57.6838C78.6344 57.688 78.6427 57.6921 78.6552 57.6963C78.676 57.7046 78.701 57.7128 78.7176 57.717C78.7301 57.7212 78.7425 57.7253 78.755 57.7295C78.7675 57.7295 78.78 57.7378 78.7883 57.742C78.8007 57.742 78.8049 57.7461 78.8174 57.7461C78.8215 57.7461 78.8299 57.7461 78.834 57.7461H78.8423C78.9837 57.717 79.1292 57.6838 79.2747 57.6463C79.308 57.6671 79.3412 57.6921 79.3579 57.7088C79.4286 57.7878 79.4868 57.8667 79.5408 57.9457C79.782 58.3033 79.8776 58.6691 79.9566 59.0018C80.0356 59.3177 80.1063 59.6171 80.2975 59.8583C80.5303 60.141 80.8089 60.2865 81.1332 60.2948H81.1665C81.4326 60.2948 81.6737 60.1991 81.8151 60.1035C81.6446 60.1451 81.3577 60.1701 81.1124 60.0245L81.0501 59.9913L81.1166 59.9747C81.1166 59.9747 81.1374 59.9747 81.154 59.9705C81.2746 59.9497 81.5407 59.904 81.7319 59.6837C81.2829 59.8458 81.0417 59.7917 80.8006 59.6504C80.4846 59.4633 80.3765 59.0642 80.2642 58.6359C80.1852 58.3407 80.1021 58.0413 79.9441 57.8209C79.861 57.7045 79.7612 57.6089 79.624 57.5507C79.94 57.4509 80.2144 57.3345 80.3765 57.2181C80.3807 57.2181 80.3848 57.2139 80.389 57.2056C80.4056 57.1931 80.4222 57.1807 80.4347 57.1724C80.4472 57.1599 80.4555 57.1516 80.468 57.1391C80.468 57.135 80.4763 57.1308 80.4805 57.1266C80.4929 57.11 80.5012 57.0976 80.5096 57.081C80.5179 57.056 80.522 57.0228 80.522 56.9812C80.522 56.977 80.522 56.9687 80.522 56.9645C80.5179 56.8772 80.4888 56.7608 80.443 56.6319C80.4389 56.6194 80.4306 56.6028 80.4264 56.5903C80.4098 56.5362 80.389 56.4781 80.364 56.4199C80.3349 56.3492 80.3058 56.2743 80.2767 56.2036C80.231 56.0955 80.1853 55.9958 80.1437 55.9001C80.0979 55.8045 80.0564 55.713 80.0231 55.6423C79.9441 55.4718 79.8776 55.3347 79.8485 55.2474C79.7986 55.106 79.7653 54.9646 79.7362 54.8274C79.703 54.6694 79.6739 54.5197 79.6115 54.3992C79.5907 54.3576 79.5658 54.3202 79.5366 54.2869C79.52 54.2661 79.4909 54.237 79.4577 54.2038C79.0585 53.7838 77.6906 52.5573 76.909 52.3495C76.909 52.3495 76.909 52.3495 76.9048 52.3495C76.6886 52.2912 76.4433 52.3037 76.1814 52.3162C76.1772 52.3162 76.1731 52.3162 76.1689 52.3162C75.8529 52.3328 75.5245 52.3495 75.2002 52.2497C75.1835 52.2455 75.1711 52.2413 75.1586 52.2372C74.9382 52.1707 74.7262 52.1083 74.5225 52.0501C74.4435 52.0293 74.3728 52.0086 74.298 51.9878C74.1608 51.9504 74.0236 51.9088 73.8947 51.8755C73.8115 51.8547 73.7325 51.8339 73.6535 51.8131C73.5413 51.784 73.429 51.7549 73.3251 51.73C73.2419 51.7092 73.1588 51.6884 73.0756 51.6676C72.9841 51.6468 72.8927 51.6218 72.8095 51.601C72.7222 51.5803 72.6432 51.5637 72.56 51.5429C72.4894 51.5263 72.4187 51.5096 72.348 51.4971C72.2607 51.4805 72.1775 51.4597 72.0985 51.4431C72.0445 51.4306 71.9904 51.4223 71.9405 51.4098C71.8574 51.3932 71.7701 51.3766 71.6952 51.3641C71.6578 51.36 71.6246 51.3516 71.5913 51.3433L71.5955 51.3558ZM77.1751 53.9044C77.2374 53.7714 77.5701 53.7215 77.6823 53.7465C77.832 53.7797 78.4266 54.3077 78.3392 54.7318C78.2727 55.0478 77.4828 54.578 77.3663 54.4491C77.2998 54.3784 77.0919 54.0749 77.1751 53.9044Z" fill="#008573"/>
<path d="M76.065 68.2568C75.4871 66.5272 74.2481 65.4005 72.6848 64.5523C70.8055 63.5295 68.9054 63.0472 66.9139 62.2573C65.0596 61.5214 62.5857 60.6815 62.698 58.2783C62.8269 55.6216 65.2051 54.8108 67.4793 54.4366C67.4793 54.1788 67.4627 53.6633 67.4586 53.4055C67.4419 52.5532 67.4253 51.4722 67.4211 51.2019C67.155 51.2393 66.8806 51.2352 66.6062 51.2892C64.1532 51.7881 61.7001 52.3661 60.1826 54.5364C58.7066 56.6443 58.6235 59.4051 60.0371 61.5505C61.4465 63.6958 63.8954 64.3361 66.1697 65.1385C67.4211 65.5792 68.6601 65.8121 69.8908 66.2985C70.9053 66.7018 71.9489 67.0801 72.7264 67.9117C73.5038 68.7432 73.8323 69.8159 73.4789 70.9385C73.1047 72.1401 72.111 72.8095 71.0508 73.3874C71.0467 73.4914 71.0466 73.6036 71.0425 73.7076C71.0342 74.4435 71.0342 75.1793 71.0009 75.9111C71.1173 75.7614 71.6495 75.6076 71.7576 75.5536C72.0819 75.3831 72.2898 75.2791 72.5434 75.1128C73.0299 74.7968 73.4872 74.5349 73.9155 74.144C75.3124 72.8635 76.1357 71.4166 76.2271 69.5083C76.2479 69.0634 76.198 68.6642 76.0567 68.2443L76.065 68.2568Z" fill="#008573"/>
<path d="M69.1008 81.1332C69.5208 81.5448 69.9532 81.9688 70.3357 82.4511L70.6475 67.2049C69.9282 66.8889 69.1133 66.6228 68.261 66.3692L68.5271 80.547C68.71 80.7382 68.9013 80.9294 69.105 81.129L69.1008 81.1332Z" fill="#008573"/>
<path d="M68.5853 83.8273L68.6477 87.2242L68.6976 89.8186C68.6976 89.8394 68.6976 89.8685 68.7059 89.9018C68.7683 90.4132 69.1882 92.3132 69.3878 92.6499C69.3878 92.6499 69.3878 92.6541 69.3878 92.6583H69.4002C69.4002 92.6583 69.4252 92.6583 69.4377 92.6624C69.4792 92.6624 69.525 92.6624 69.5582 92.6624C69.579 92.6333 69.5998 92.5793 69.6206 92.5211C69.841 91.9391 70.1694 90.1305 70.1819 89.8186L70.2359 87.2242L70.2484 86.5881C70.2484 86.5881 69.7578 84.8709 68.5812 83.8315L68.5853 83.8273Z" fill="#008573"/>
<path d="M67.0927 45.9466C67.1093 46.5121 67.3172 47.0317 67.6789 47.4433C67.7371 47.5099 67.7995 47.5722 67.866 47.6346L67.9242 47.6887L68.1861 62.0826C68.2984 62.12 68.4023 62.1574 68.5146 62.199C69.2463 62.4526 69.9989 62.7146 70.739 62.9973L71.0425 47.6929L71.1007 47.6387C71.2504 47.5015 71.3751 47.3478 71.4873 47.1773C71.5081 47.1482 71.5289 47.1191 71.5456 47.09C71.5497 47.0817 71.5539 47.0733 71.558 47.065C71.7451 46.7324 71.8574 46.354 71.8698 45.9673C71.8782 45.7927 71.8698 45.614 71.8324 45.4311C71.6786 44.6079 71.0924 43.9301 70.319 43.6474C70.2068 43.6058 70.0903 43.5726 69.9739 43.5518C69.9365 43.5435 69.9033 43.5435 69.8658 43.5352C69.2921 43.4478 68.7225 43.5601 68.2402 43.8553C68.1487 43.9135 68.0572 43.9717 67.9699 44.0424C67.4128 44.4997 67.0968 45.1691 67.0968 45.8842C67.0968 45.8884 67.0968 45.8967 67.0968 45.9009C67.0968 45.9175 67.0968 45.9342 67.0968 45.9508L67.0927 45.9466Z" fill="#008573"/>
<path d="M26.6342 40.9033C26.8088 40.6497 26.9835 40.4085 27.1705 40.1674C27.262 40.0468 27.3493 39.9263 27.4408 39.814C28.1393 38.9575 28.8835 38.1343 29.6569 37.3484C30.4302 36.5585 31.2201 35.8019 32.0143 35.041C31.3033 35.8725 30.584 36.7082 29.9022 37.5605C29.2203 38.4128 28.5675 39.2818 27.9688 40.1923C27.7152 40.579 27.4907 40.9699 27.2662 41.369C27.1913 41.5062 27.1207 41.6392 27.05 41.7765C26.9793 41.9137 26.9211 42.0259 26.8504 42.1756C30.6505 41.1653 33.5069 38.6997 35.8269 35.5025C37.3236 33.4444 38.4919 30.8833 39.1198 28.3221C39.1489 28.1974 39.1946 27.9687 39.2195 27.8357C39.0823 27.8648 38.8578 27.8814 38.7373 27.9105C35.8684 28.6007 33.5692 29.3574 31.3199 31.4321C28.4303 34.1013 26.9627 37.8766 26.1187 41.6933C26.285 41.4439 26.4637 41.1569 26.6425 40.9033H26.6342Z" fill="#008573"/>
<path d="M15.5165 72.56C15.583 72.639 15.7202 72.8012 15.7826 72.8719C15.6495 72.5476 15.5082 72.1941 15.3793 71.8656C15.2504 71.5372 15.134 71.2213 15.0134 70.8928C14.9386 70.6932 14.8596 70.4977 14.7931 70.294C14.1694 68.4438 13.6871 66.5854 13.3794 64.6563C13.8992 66.5189 14.5686 68.2942 15.3876 70.0446C15.7701 70.8595 16.1859 71.6328 16.6141 72.4228C16.7389 72.6556 16.8678 72.8759 16.9966 73.1046C17.0382 73.1795 17.0798 73.2501 17.1214 73.3208C17.138 73.3499 17.1546 73.379 17.1713 73.4081C17.2212 73.1753 17.2752 72.9425 17.3334 72.7097C17.3584 72.6099 17.3833 72.5143 17.4124 72.4186C17.5164 72.0694 17.6286 71.7243 17.7533 71.3792C17.7866 71.2878 17.8157 71.1922 17.8573 71.1007C18.5683 69.4584 19.5245 68.0905 20.7344 66.7766C19.7241 68.1902 18.9508 69.633 18.4643 71.3002C18.3936 71.5456 18.352 71.7784 18.3022 72.0154C18.2439 72.3064 18.2024 72.6057 18.165 72.8926C18.1275 73.1795 18.1151 73.4331 18.0818 73.7241C19.4372 71.4582 20.7386 69.9406 22.7592 68.1362C25.8525 65.3796 27.9023 62.3654 28.9874 58.2202C29.0165 58.1162 29.0997 57.8002 29.1205 57.6713C28.9833 57.7046 28.6922 57.7835 28.5675 57.8209C24.5844 59.035 21.0961 61.0931 18.9674 64.7103C17.7118 66.8432 17.3376 68.8846 17.0715 71.2711C16.6308 69.0925 16.2441 66.9263 15.8824 64.7269C15.5082 62.4651 15.001 60.0412 14.2567 57.9167C13.3545 55.3347 12.0157 53.2974 10.4233 51.1146C9.11782 54.5406 8.35696 57.9915 9.25086 61.7376C10.203 65.7373 12.839 69.3503 15.5165 72.5517V72.56Z" fill="#008573"/>
<path d="M16.6433 60.5027C16.635 60.2616 16.5684 59.8166 16.5352 59.484C16.5019 59.1514 16.4686 58.8022 16.4437 58.4654C16.4271 58.2658 16.4021 58.0621 16.3938 57.8542C16.2815 55.9417 16.3107 54.0499 16.5144 52.1457C16.5269 54.0416 16.7056 55.9085 17.0299 57.7753C17.1505 58.4696 17.3085 59.1431 17.4623 59.8291C17.5413 60.1742 17.6245 60.5151 17.7076 60.8561C17.7409 60.9891 17.7742 61.1263 17.8116 61.2552C17.8116 61.2593 17.8157 61.247 17.8199 61.2386C17.9031 61.0682 17.9654 60.9351 18.0652 60.7521C18.1608 60.5692 18.2772 60.353 18.3937 60.1618C18.6015 59.8167 18.8302 59.4674 19.0714 59.139C19.1462 59.035 19.2169 58.9311 19.3 58.8313C20.3977 57.4884 21.6408 56.3991 23.0627 55.4137C21.8154 56.5488 20.722 57.7586 19.8364 59.193C19.5578 59.642 19.3541 60.0952 19.1379 60.5651C19.0256 60.8062 18.9383 61.0557 18.8469 61.2968C18.7554 61.5421 18.6972 61.7583 18.6057 62.0119C20.3519 60.3655 21.8445 59.3011 24.0024 58.0829C27.4574 56.1246 29.8938 53.6383 31.6775 49.9338C31.7191 49.8465 31.8646 49.5596 31.9062 49.4474C31.769 49.4474 31.4946 49.4474 31.3698 49.4557C27.129 49.6386 23.6864 50.9234 21.0629 54.3493C21.0463 54.3701 21.0213 54.4033 21.0088 54.4241C19.8197 56.0872 18.8136 57.7628 18.1691 59.6754C18.3521 57.6214 18.7346 54.5696 18.9051 52.7278C19.1379 50.1708 19.1795 48.4204 18.9175 46.1379C18.6265 43.5975 17.8532 41.4895 17.0965 39.0407C14.2609 43.0237 12.8515 47.198 13.5666 52.4118C13.8119 54.1829 15.6122 58.5653 16.6516 60.5152L16.6433 60.5027Z" fill="#008573"/>
<path d="M20.5682 48.8029C20.6056 48.4662 20.6513 48.1336 20.6971 47.7968C20.7386 47.4933 20.7802 47.194 20.8301 46.8905C21.1336 45.0444 21.6118 43.2233 22.3477 41.5186C21.8113 43.294 21.5577 45.1276 21.4704 46.9569C21.4455 47.4725 21.433 47.988 21.4288 48.5078C21.4288 48.9194 21.4288 49.331 21.4288 49.7467C21.4288 49.859 21.433 49.9713 21.4371 50.0835C21.4371 50.2249 21.4413 50.3621 21.4455 50.5035C21.5203 50.3995 21.5951 50.2914 21.6741 50.1875C21.7406 50.1002 21.8113 50.0128 21.882 49.9255C22.173 49.5638 22.4849 49.2187 22.8133 48.8944C22.8383 48.8694 22.8632 48.8404 22.8923 48.8154C24.0814 47.6554 25.4909 46.7782 26.971 46.1337C25.5865 46.9653 24.3434 48.0047 23.3705 49.2437C23.121 49.5638 22.8882 49.8922 22.672 50.2332C22.5431 50.4369 22.4225 50.6448 22.3061 50.8526C22.1938 51.0564 22.0899 51.2602 21.9859 51.4722C23.6864 50.3164 25.3911 49.6012 27.05 48.9069C30.4884 47.4725 33.7356 46.113 36.567 41.1778L36.8871 40.6206L36.2468 40.6663C32.2804 40.9532 28.9917 42.0425 26.3973 43.9135C25.8152 44.3334 25.2664 44.7908 24.755 45.2897C23.6864 46.3333 22.7717 47.5473 22.0109 48.9318C22.5264 47.2147 23.2499 45.5683 23.9609 43.9634C24.6427 42.4251 25.2872 40.9699 25.757 39.4648C26.6883 36.4795 26.6342 33.8269 26.2102 29.9769L26.1312 29.2701L25.6281 29.7732C18.0569 37.3277 18.3895 40.7994 20.4476 49.8382C20.4809 49.4889 20.5224 49.1439 20.564 48.7946L20.5682 48.8029Z" fill="#008573"/>
<path d="M17.6079 84.5716C17.4831 84.4136 17.3044 84.1351 17.1422 83.8898C16.9801 83.6445 16.8013 83.3825 16.6308 83.1122C16.4562 82.842 16.2608 82.5509 16.0862 82.2599C15.0467 80.5511 14.0738 78.7966 13.2007 76.9963C14.2568 78.6843 15.396 80.3016 16.61 81.8774C17.005 82.3888 17.4166 82.8836 17.8241 83.3825C17.9987 83.5946 18.1692 83.7982 18.3438 84.0103C18.4186 84.0976 18.4893 84.1849 18.5641 84.2764C18.5974 84.318 18.6348 84.3596 18.6681 84.4012C18.6806 84.3055 18.6847 84.2223 18.6972 84.1267C18.7097 84.0311 18.7263 83.9271 18.7429 83.8315C18.7887 83.5613 18.8385 83.291 18.9009 83.0249C18.9217 82.9335 18.9342 82.8462 18.9633 82.7547C19.5204 81.021 20.3062 79.4493 21.2459 77.8943C20.5141 79.5116 19.9279 81.1373 19.5869 82.8794C19.5703 82.9708 19.5661 83.0582 19.5578 83.1497C19.5287 83.4241 19.5079 83.686 19.4955 83.9604C19.483 84.239 19.483 84.5259 19.4788 84.8086C19.5953 84.5342 19.6535 84.3637 19.8156 84.0893C20.8259 82.3597 21.9942 80.7341 23.1958 79.1084C25.8692 75.4829 27.2413 71.8824 27.6778 67.3671C27.6861 67.259 27.7069 66.9347 27.7069 66.7974C27.5572 66.864 27.3202 66.9928 27.1872 67.0677C20.7844 70.8304 17.9446 74.8592 18.1733 82.4221C17.928 81.7984 17.6203 81.0084 17.3667 80.3931C15.8783 76.7676 14.0447 72.7304 11.7289 69.7785C10.0242 67.6082 8.78109 66.8141 6.92676 64.9764C7.23858 68.9844 6.88934 71.4832 8.53578 75.5577C9.92445 78.992 14.1778 82.6632 17.6162 84.5757L17.6079 84.5716Z" fill="#008573"/>
<path d="M20.9091 95.4398C20.6887 95.2319 20.4684 95.0282 20.248 94.8162C19.9071 94.4877 19.5703 94.1592 19.2419 93.8224C17.8324 92.3922 16.5186 90.8704 15.3794 89.2323C16.6849 90.7374 18.1401 92.097 19.6743 93.3485C20.3395 93.8931 21.0214 94.4169 21.7115 94.9283C21.8945 95.0655 22.0774 95.2028 22.2645 95.3359C22.4017 95.4357 22.5431 95.5396 22.6844 95.6394C22.6844 95.6061 22.6803 95.5729 22.6761 95.5396C22.6761 95.5022 22.6678 95.4606 22.6637 95.4232C22.6512 95.2735 22.647 95.1238 22.6387 94.97C22.6304 94.7163 22.6262 94.4627 22.6304 94.2091C22.6345 93.918 22.647 93.627 22.6678 93.3402C22.7759 91.9307 23.0794 90.5669 23.4702 89.2406C23.5576 88.9496 23.6449 88.6627 23.7363 88.3758C23.6823 88.6627 23.6324 88.9538 23.5825 89.2448C23.3912 90.4214 23.2748 91.6022 23.2873 92.7747C23.2873 92.8745 23.2915 92.9742 23.2956 93.074C23.2956 93.1655 23.2956 93.257 23.3039 93.3485C23.3039 93.4275 23.3164 93.5022 23.3206 93.5812C23.333 93.7725 23.3497 93.9638 23.3705 94.1551C23.3705 94.1675 23.3705 94.1841 23.3746 94.1966C23.3788 94.2506 23.3871 94.3006 23.3912 94.3505C23.4079 94.3089 23.4203 94.2673 23.437 94.2215C23.5825 93.8224 23.7654 93.3817 23.9733 92.9078C24.1854 92.4255 24.4182 91.9099 24.6635 91.3694C24.9462 90.7499 25.2456 90.093 25.5449 89.4112C25.5449 89.407 25.5491 89.4028 25.5532 89.3945C25.8734 88.6628 26.1935 87.8978 26.4929 87.1078C26.5303 87.0122 26.5677 86.9124 26.6051 86.8126C26.9086 85.9935 27.1914 85.1495 27.4325 84.2889C27.6986 83.3409 27.9065 82.368 28.0395 81.3951C28.0395 81.391 28.0395 81.3868 28.0395 81.3826C28.1393 80.6176 28.1892 79.8484 28.1767 79.0834C28.1643 78.2145 28.0686 77.3455 27.8691 76.4849L27.761 76.0233C27.0334 76.8632 21.7282 80.4762 21.171 87.6607C21.0214 89.6023 21.7074 93.39 21.8695 94.0386C20.5806 92.413 19.5163 90.8248 18.481 89.2739C15.6954 85.0996 14.4231 82.7214 8.11587 79.5906L7.47144 79.2705C9.06383 87.6108 11.4462 92.4463 21.5619 96.0385C21.3415 95.8348 21.1211 95.6311 20.9049 95.4273L20.9091 95.4398Z" fill="#008573"/>
<path d="M82.892 122.864L84.6216 122.394L83.0375 120.008L82.892 122.864Z" fill="#008573"/>
<path d="M49.0025 116.977C47.9673 116.532 47.0235 117.11 46.3666 118.64C45.7055 120.178 45.93 121.238 46.9736 121.691C48.0255 122.145 48.961 121.583 49.622 120.045C50.2831 118.515 50.0461 117.43 49.0025 116.981V116.977Z" fill="#008573"/>
<path d="M43.6516 114.337L43.2441 114.104L42.1299 116.045L42.7951 116.428C43.0612 116.578 43.7056 116.681 44.1547 115.896C44.533 115.235 44.2586 114.686 43.6516 114.341V114.337Z" fill="#008573"/>
<path d="M101.119 114.515L102.566 113.451L100.217 111.767L101.119 114.515Z" fill="#008573"/>
<path d="M112.819 91.7686C112.703 92.0222 111.601 94.2798 109.472 97.3232C107.946 99.506 105.913 102.092 103.211 104.649C99.4936 108.167 94.7829 111.709 88.6461 114.299C82.9875 116.686 76.5888 118.22 69.4709 118.22C62.3529 118.22 55.9542 116.686 50.2956 114.299C44.1588 111.709 39.4482 108.167 35.7312 104.649C33.0287 102.092 30.9956 99.506 29.4697 97.3232C27.3368 94.2798 26.2392 92.0264 26.1228 91.7686L20.776 99.4853C19.0671 101.768 24.6509 108.108 27.6029 111.156C30.8667 114.524 35.5773 118.207 40.9449 121.213C48.092 125.213 55.6798 127.471 63.2717 128.24C65.334 128.448 67.4086 128.523 69.4709 128.56C71.5331 128.523 73.6078 128.448 75.67 128.24C83.2619 127.475 90.8539 125.213 97.9968 121.213C103.364 118.212 108.075 114.524 111.339 111.156C114.295 108.108 119.879 101.768 118.17 99.4853L112.823 91.7686H112.819ZM28.7463 106.395C28.6506 106.578 28.5176 106.736 28.3679 106.861C28.2141 106.998 28.0311 107.098 27.8482 107.169C27.4782 107.31 27.0707 107.347 26.6882 107.235C26.3057 107.119 26.0022 106.878 25.7527 106.607C25.5074 106.329 25.3162 106.009 25.1956 105.664C25.0792 105.323 25.0376 104.936 25.1623 104.595H25.1665L25.5739 104.541C25.5739 104.541 25.3162 105.277 26.0105 106.096C26.5177 106.699 27.1871 106.682 27.6611 106.283C27.7526 106.208 27.8191 106.125 27.8731 106.042C27.9563 105.905 27.9937 105.743 27.9896 105.58C27.9896 105.414 27.9646 105.256 27.9064 105.098C27.8565 104.94 27.8025 104.782 27.7442 104.628L27.5613 104.159C27.4407 103.843 27.3534 103.477 27.4449 103.09C27.4865 102.899 27.5779 102.72 27.6944 102.574C27.8149 102.429 27.948 102.304 28.1018 102.2C28.4053 101.992 28.7795 101.872 29.1496 101.893C29.5196 101.909 29.8688 102.063 30.1391 102.288C30.4135 102.508 30.6214 102.799 30.7627 103.111C30.8292 103.269 30.8791 103.431 30.9082 103.597C30.9332 103.743 30.9415 103.884 30.9374 104.03C30.9374 104.042 30.9374 104.055 30.9374 104.063C30.9374 104.075 30.9374 104.088 30.9374 104.1L30.5798 104.287C30.5798 104.287 30.6297 103.597 30.1391 103.019C29.7108 102.512 29.1454 102.454 28.6589 102.865C28.53 102.978 28.4427 103.094 28.3887 103.219C28.3804 103.236 28.3721 103.252 28.3679 103.265C28.3596 103.281 28.3554 103.302 28.3513 103.319C28.318 103.435 28.3097 103.56 28.3222 103.68C28.3346 103.859 28.3762 104.03 28.4427 104.196L28.634 104.699C28.7005 104.865 28.767 105.036 28.8169 105.219C28.8668 105.397 28.9042 105.593 28.9001 105.792C28.8918 105.992 28.8419 106.2 28.7504 106.387L28.7463 106.395ZM29.8106 110.669L29.1163 109.992L30.9748 108.088L31.8936 104.566L32.588 105.248L31.7689 108.366L34.8414 107.447L35.2322 107.83L31.5278 108.915L29.8106 110.674V110.669ZM37.2861 116.827L36.7581 116.432L36.517 116.249L39.0573 112.856L35.1242 115.193L34.5587 114.765L35.7852 110.058L33.0619 113.626L32.6711 113.326L36.2093 108.703V108.736L36.2176 108.711L36.8787 109.21H36.8829L35.515 114.432L35.5607 114.403L40.1591 111.696L40.5666 112.004L40.7869 112.17L40.7162 112.262L37.2986 116.823L37.2861 116.827ZM45.0444 115.921C44.9613 116.295 44.6993 116.619 44.375 116.777C44.0507 116.943 43.6932 116.968 43.3689 116.902C43.531 117.01 43.6641 117.155 43.7846 117.313C43.8428 117.397 43.8886 117.488 43.9301 117.584C43.9676 117.679 43.9967 117.783 44.0133 117.887C44.0466 118.099 44.0299 118.32 43.9634 118.527C43.8927 118.735 43.7763 118.927 43.6266 119.08C43.3273 119.392 42.9073 119.567 42.4957 119.579C42.1091 119.6 41.7349 119.475 41.4272 119.28C41.2859 119.218 41.1362 119.147 40.9865 119.06L39.7059 118.324L42.5706 113.326L42.5997 113.272L43.8761 114.004C43.9634 114.054 44.0466 114.108 44.1214 114.162C44.4124 114.324 44.6827 114.549 44.8615 114.856C44.903 114.935 44.9488 115.014 44.9779 115.097C45.0028 115.185 45.0402 115.268 45.0569 115.359C45.0818 115.542 45.0985 115.733 45.0486 115.921H45.0444ZM50.7654 119.463C50.6864 119.841 50.57 120.207 50.4037 120.552C50.2374 120.897 50.042 121.234 49.78 121.525C49.5264 121.816 49.2146 122.074 48.8487 122.228C48.487 122.386 48.0837 122.448 47.7053 122.398C47.3311 122.348 46.9777 122.195 46.641 122.024C46.3125 121.854 45.9799 121.662 45.7346 121.38C45.4851 121.089 45.3147 120.727 45.2357 120.344C45.1483 119.962 45.165 119.567 45.2273 119.189C45.2939 118.81 45.4228 118.444 45.5808 118.099C45.7429 117.758 45.9466 117.426 46.1961 117.135C46.4539 116.848 46.7574 116.582 47.1191 116.428C47.4808 116.27 47.88 116.212 48.2583 116.257C48.5327 116.291 48.7946 116.39 49.0483 116.499C49.3102 116.611 49.568 116.736 49.8091 116.893C49.9671 116.997 50.1168 117.118 50.2498 117.259C50.5076 117.55 50.6864 117.912 50.7696 118.299C50.8486 118.686 50.8319 119.085 50.7612 119.463H50.7654ZM54.4907 124.706L51.3683 123.741L51.6593 122.797L53.0854 118.178L54.0126 118.465L52.4202 123.616L54.6154 124.294L54.4865 124.706H54.4907ZM60.6773 124.095C60.4528 125.23 59.6961 125.928 58.3241 125.658C57.0061 125.396 56.5155 124.469 56.74 123.321L56.8647 122.689L57.4967 119.475L58.4488 119.662L57.688 123.529C57.5715 124.203 57.6547 125.022 58.5486 125.238C59.4591 125.388 60.0246 124.86 60.2241 123.853L60.9517 120.153L61.434 120.249L60.6732 124.095H60.6773ZM68.8805 126.398L68.8638 126.722L67.8951 126.668L68.1362 122.436L66.1572 126.556L66.0158 126.548L65.4462 126.514L63.8621 121.904L63.5752 126.398L63.0846 126.369L63.4505 120.739L63.463 120.556L64.3112 120.606L66.0574 125.712L66.4441 124.918L68.4065 120.86L68.868 120.889L69.2006 120.91L68.8888 126.398H68.8805ZM80.5885 124.531C80.5179 124.918 80.3432 125.292 80.048 125.562C79.7528 125.828 79.3911 125.97 79.0294 126.04C78.6635 126.111 78.2893 126.111 77.9318 126.032C77.5784 125.957 77.225 125.795 77.0004 125.512L77.1626 125.13C77.1626 125.13 77.6615 125.729 78.7217 125.554C79.4992 125.425 79.8318 124.843 79.7279 124.236C79.7071 124.124 79.678 124.024 79.6323 123.941C79.5574 123.795 79.4368 123.679 79.2955 123.6C79.1541 123.517 79.0044 123.454 78.8423 123.425C78.6801 123.388 78.518 123.355 78.3558 123.321L77.8569 123.234C77.5243 123.176 77.1626 123.063 76.8799 122.785C76.7385 122.652 76.6346 122.481 76.5639 122.303C76.5015 122.124 76.4599 121.945 76.4516 121.762C76.4267 121.396 76.5181 121.014 76.726 120.702C76.9298 120.39 77.2416 120.17 77.5742 120.053C77.9068 119.933 78.2602 119.9 78.6011 119.941C78.7716 119.966 78.9379 120.008 79.0959 120.066C79.2165 120.112 79.3287 120.17 79.4368 120.236C79.5075 120.274 79.5449 120.299 79.5449 120.299L79.52 120.702C79.52 120.702 78.9546 120.307 78.202 120.428C77.5493 120.536 77.2042 120.993 77.3081 121.621C77.3372 121.791 77.3954 121.924 77.4744 122.037C77.4827 122.049 77.491 122.066 77.5035 122.078C77.516 122.095 77.5326 122.111 77.5451 122.128C77.5659 122.149 77.5867 122.174 77.6116 122.19C77.6781 122.249 77.7571 122.294 77.8361 122.332C77.9941 122.411 78.1646 122.465 78.3392 122.494L78.8672 122.59C79.046 122.619 79.2248 122.648 79.4077 122.698C79.5865 122.748 79.7736 122.814 79.9441 122.922C80.1104 123.034 80.2642 123.18 80.3806 123.355C80.4887 123.529 80.5594 123.725 80.5885 123.92C80.626 124.124 80.6176 124.332 80.5885 124.527V124.531ZM86.8084 124.028L86.4093 124.136L85.873 124.282L84.8294 122.706L82.8628 123.242L82.7464 125.13L82.289 125.255L82.6507 119.122L83.4158 118.914L86.8043 124.024L86.8084 124.028ZM91.7852 122.145L87.6857 119.126L89.2989 123.143L88.8415 123.325L86.6754 117.92L87.3323 117.659L87.7231 117.95L91.8268 120.968L90.0639 116.565L90.0722 116.586L90.0639 116.561L90.5213 116.378L92.6417 121.667L92.6916 121.783L91.7852 122.141V122.145ZM94.9825 120.669L92.3215 115.488L92.4629 115.413L92.6583 115.314L93.1863 115.043L95.8473 120.224L94.9825 120.669ZM99.373 118.224L99.2275 118.311L98.6537 118.661L95.8431 114.058L94.5792 114.823L94.3547 114.457L97.7764 112.382L98.001 112.748L96.6705 113.555L99.4769 118.157L99.3688 118.224H99.373ZM104.412 114.765L102.878 113.667L101.231 114.877L101.801 116.681L101.419 116.964L99.5518 111.11L100.196 110.636L100.209 110.62L105.136 114.149L105.194 114.191L104.412 114.765ZM106.878 112.732L103.31 108.686L102.188 109.676L101.905 109.351L104.911 106.707L105.194 107.031L104.042 108.046L107.605 112.091L106.878 112.732ZM110.42 109.389L110.058 109.759L109.95 109.867L105.797 105.784L106.478 105.09L110.632 109.173L110.42 109.389ZM113.896 105.306C113.846 105.701 113.659 106.042 113.43 106.333C113.197 106.624 112.915 106.865 112.59 107.04C112.27 107.21 111.9 107.318 111.543 107.252L111.422 106.853C111.422 106.853 112.191 106.986 112.881 106.162C113.389 105.56 113.264 104.903 112.79 104.504C112.698 104.429 112.611 104.375 112.52 104.337C112.37 104.279 112.204 104.271 112.05 104.296C111.888 104.325 111.734 104.375 111.588 104.458C111.443 104.533 111.297 104.616 111.152 104.695L110.715 104.953C110.424 105.123 110.075 105.273 109.68 105.248C109.484 105.239 109.293 105.177 109.131 105.086C108.969 104.994 108.819 104.882 108.695 104.745C108.437 104.479 108.258 104.134 108.216 103.763C108.171 103.393 108.266 103.023 108.441 102.72C108.616 102.412 108.865 102.159 109.148 101.967C109.293 101.876 109.447 101.801 109.605 101.743C109.734 101.697 109.867 101.668 110.004 101.647C110.042 101.639 110.071 101.635 110.083 101.635C110.087 101.635 110.092 101.635 110.096 101.635L110.341 101.959C110.341 101.959 109.655 102.026 109.164 102.608C108.736 103.115 108.774 103.684 109.26 104.092C109.372 104.188 109.484 104.25 109.601 104.287C109.638 104.3 109.676 104.308 109.717 104.316C109.73 104.316 109.742 104.316 109.755 104.321C109.879 104.337 110.008 104.321 110.129 104.292C110.299 104.25 110.466 104.179 110.62 104.088L111.085 103.818C111.239 103.722 111.397 103.63 111.568 103.551C111.738 103.472 111.921 103.402 112.12 103.377C112.32 103.352 112.532 103.364 112.732 103.427C112.931 103.489 113.106 103.593 113.256 103.722C113.418 103.851 113.547 104.017 113.646 104.183C113.846 104.524 113.95 104.919 113.904 105.318L113.896 105.306Z" fill="#008573"/>
<path d="M42.6413 116.765L41.9428 116.365L40.7371 118.469L41.1528 118.706C41.9927 119.189 42.6246 119.076 43.057 118.32C43.4562 117.621 43.1984 117.081 42.6413 116.76V116.765Z" fill="#008573"/>
<path d="M17.8822 87.062C17.8822 87.7855 18.4684 88.3717 19.1919 88.3717C19.9153 88.3717 20.5015 87.7855 20.5015 87.062C20.5015 86.3386 19.9153 85.7524 19.1919 85.7524C18.4684 85.7524 17.8822 86.3386 17.8822 87.062Z" fill="#008573"/>
<path d="M17.1504 74.6056C16.5268 74.6056 16.0195 75.1128 16.0195 75.7365C16.0195 76.3601 16.5268 76.8674 17.1504 76.8674C17.7741 76.8674 18.2813 76.3601 18.2813 75.7365C18.2813 75.1128 17.7741 74.6056 17.1504 74.6056Z" fill="#008573"/>
<path d="M17.4706 62.8893C16.8802 62.8893 16.4021 63.3673 16.4021 63.9577C16.4021 64.5481 16.8802 65.0263 17.4706 65.0263C18.061 65.0263 18.5391 64.5481 18.5391 63.9577C18.5391 63.3673 18.061 62.8893 17.4706 62.8893Z" fill="#008573"/>
<path d="M20.4392 51.6967C19.8489 51.6967 19.3749 52.1748 19.3749 52.761C19.3749 53.3473 19.853 53.8254 20.4392 53.8254C21.0255 53.8254 21.5036 53.3473 21.5036 52.761C21.5036 52.1748 21.0255 51.6967 20.4392 51.6967Z" fill="#008573"/>
<path d="M39.6437 19.3083C39.8682 19.2334 39.9721 19.2085 40.0137 19.2002C40.3089 19.1544 40.5625 19.2584 40.7954 19.5203C41.0032 19.7407 41.286 20.2022 41.6352 20.8965L43.7224 25.0542C44.0675 25.7403 44.2629 26.2309 44.3128 26.5261C44.3876 26.867 44.3211 27.1372 44.1132 27.3451L43.6933 27.6611L43.843 27.9646L48.6201 25.5698C49.4351 25.1623 50.0171 24.5927 50.3414 23.8859C50.674 23.1666 50.6325 22.3849 50.2209 21.5659C49.8799 20.884 49.3353 20.4641 48.5994 20.3102C48.0838 20.2021 47.5308 20.2272 46.9404 20.3852C47.0402 20.2978 47.1317 20.2063 47.2148 20.119C47.984 19.3374 48.1337 18.4601 47.6556 17.5121C46.9571 16.1193 45.6765 15.8823 43.843 16.8012L39.3651 19.0463L39.5189 19.3499L39.6437 19.3083ZM46.7492 21.4079C47.1525 21.5534 47.5433 21.9983 47.905 22.7217C48.3291 23.5657 48.4954 24.2019 48.4123 24.6093C48.3208 24.9627 48.1295 25.2039 47.8385 25.3494L47.6888 25.4242C47.3229 25.6072 47.0319 25.5615 46.7658 25.2788C46.5621 25.0709 46.3334 24.7091 46.0798 24.206L44.8616 21.7738L45.3855 21.5119C45.8553 21.2749 46.3043 21.2375 46.7492 21.3996V21.4079ZM43.4563 17.5787L43.6184 17.4996C43.818 17.3999 44.0051 17.35 44.1797 17.35C44.3336 17.35 44.4832 17.3874 44.6288 17.4623C44.9531 17.6327 45.2524 17.9944 45.5268 18.5432C45.8594 19.2043 46.0008 19.7323 45.9551 20.1065C45.8969 20.4849 45.6266 20.7925 45.1318 21.042L44.6204 21.2998L43.448 18.9632C43.2817 18.6305 43.1736 18.3769 43.1278 18.2147C43.0738 17.9196 43.1777 17.7201 43.4563 17.5787Z" fill="#008573"/>
<path d="M52.8235 22.8715C53.3307 23.1334 53.8421 23.2664 54.3618 23.2664C54.6736 23.2664 54.9896 23.2165 55.3015 23.1209C56.1372 22.8672 56.7816 22.331 57.2181 21.5285C57.6547 20.7261 57.7212 19.8114 57.4177 18.8052C57.1101 17.8032 56.5404 17.0797 55.7255 16.6598C54.9106 16.2399 54.0791 16.1568 53.2517 16.4062C52.416 16.6599 51.7716 17.1962 51.335 17.9987C50.8985 18.8011 50.8319 19.7157 51.1354 20.7219C51.4431 21.7239 52.0086 22.4474 52.8193 22.8673L52.8235 22.8715ZM52.9524 17.2045C53.023 17.0257 53.1644 16.9052 53.3848 16.8387C53.4679 16.8137 53.5469 16.8012 53.6176 16.8012C53.734 16.8012 53.8379 16.8345 53.9294 16.901C54.1747 17.0756 54.5822 17.666 55.1393 19.4995C55.7006 21.3456 55.6964 22.0649 55.5925 22.3434C55.5218 22.5222 55.3846 22.6386 55.1726 22.7051C54.9522 22.7716 54.7693 22.7467 54.6071 22.6303C54.3577 22.4515 53.9377 21.8611 53.3848 20.0359C52.8193 18.1816 52.8359 17.4747 52.9524 17.2045Z" fill="#008573"/>
<path d="M58.7191 21.8154C58.8854 21.936 59.0767 21.9983 59.2804 21.9983C59.3345 21.9983 59.3885 21.9941 59.4467 21.9858C59.929 21.911 60.2408 21.6449 60.378 21.1959C60.5028 20.7843 60.5402 20.1689 60.4945 19.3083C60.4945 19.2792 60.457 18.8759 60.3947 18.1068C60.3282 17.3168 60.2741 16.743 60.2284 16.4062C60.2076 16.0403 60.2325 15.7701 60.3115 15.608C60.378 15.4666 60.5194 15.3834 60.7439 15.3502C61.1306 15.2878 61.2428 15.4458 61.2844 15.504C61.326 15.5581 61.4091 15.7078 61.4715 16.1277L62.0079 19.6035C62.0785 20.0483 62.1118 20.3602 62.1118 20.5348C62.1118 20.805 62.0286 20.9797 61.8457 21.0795C61.7833 21.1127 61.7251 21.1335 61.6669 21.1418L61.5172 21.1668L61.5713 21.5244L65.3091 20.9464L65.255 20.5889L65.1053 20.6138C65.0388 20.6221 64.964 20.6221 64.8891 20.6138C64.6854 20.5722 64.5482 20.4642 64.4692 20.2812C64.3985 20.1066 64.3112 19.6825 64.2073 19.0173L63.8123 16.4561C63.7167 15.849 63.6751 15.4291 63.6876 15.2129C63.7 14.9967 63.7957 14.8346 63.9828 14.7265C63.9828 14.7265 64.041 14.7016 64.2031 14.6559L64.332 14.6184L64.278 14.2774L58.7357 15.1339L58.7898 15.4791L58.9312 15.4666C59.1474 15.4499 59.3095 15.4749 59.4093 15.5414C59.5049 15.6038 59.5756 15.7368 59.6255 15.9364C59.6671 16.0985 59.6962 16.2731 59.7087 16.4685C59.85 17.6868 59.9332 18.6472 59.954 19.3249C59.9789 19.7781 59.954 19.9902 59.9249 20.0817C59.8957 20.1773 59.8583 20.2271 59.8126 20.2354C59.8084 20.2354 59.7627 20.2396 59.6338 20.1773C59.4467 20.0567 59.2555 20.0068 59.0642 20.04C58.8106 20.0775 58.6069 20.2105 58.4655 20.4308C58.3283 20.6429 58.2784 20.8882 58.3241 21.1626C58.3782 21.4412 58.5112 21.6616 58.7233 21.8154H58.7191Z" fill="#008573"/>
<path d="M65.758 14.5561C65.9535 14.5769 66.0117 14.6017 66.0283 14.6059L66.0449 14.6142C66.1821 14.6641 66.2819 14.7722 66.3526 14.9469C66.3817 15.0175 66.4316 15.2878 66.4524 16.2607L66.5064 18.8509C66.5272 19.8321 66.4732 20.1107 66.4316 20.198C66.3734 20.3601 66.2819 20.4683 66.153 20.5306C66.0907 20.5597 66.0034 20.5764 65.8994 20.5806H65.7456L65.7539 20.9464L69.6912 20.8674L69.6829 20.5056H69.5332C69.4127 20.5098 69.3087 20.4974 69.2339 20.4683C69.0925 20.4101 69.0011 20.3145 68.947 20.1773L68.9345 20.1523C68.8846 20.0692 68.7932 19.7781 68.7765 18.8011L68.7017 15.1506C68.6975 14.8845 68.7391 14.7722 68.7641 14.7307C68.7973 14.6766 68.8763 14.6475 68.9969 14.6475C69.2588 14.6434 69.5166 14.8346 69.7702 15.2254C70.1777 15.8407 70.5352 16.4311 70.8304 16.9883L70.8762 17.0714L71.1963 17.0632L71.0425 14.082L65.625 14.1901L65.6333 14.5353L65.7664 14.5477L65.758 14.5561Z" fill="#008573"/>
<path d="M76.6221 21.042L76.4932 21.0088C76.2354 20.9423 76.0483 20.8633 75.9361 20.7718L75.9236 20.7635C75.7199 20.6304 75.6034 20.4267 75.5743 20.1357C75.5286 19.8488 75.5494 19.3249 75.6367 18.5848L76.2479 13.4252C76.3352 12.6851 76.5389 12.2278 76.8591 12.0656C77.0004 11.9908 77.1958 11.9699 77.4411 11.999L77.5534 12.0115C77.99 12.0988 78.3267 12.4356 78.5928 13.0468C78.8755 13.5831 79.1416 14.3065 79.3869 15.2004L79.4119 15.3003L79.7611 15.3418L79.8817 11.7288L72.8469 10.8973L72.8012 11.2881L72.9508 11.3047C73.0631 11.3172 73.1837 11.3504 73.3001 11.3962C73.5703 11.5209 73.7283 11.7413 73.7782 12.0781C73.8323 12.3775 73.8115 12.9137 73.7242 13.6746L73.1795 18.2938C73.0922 19.0297 72.9966 19.5453 72.8926 19.8238C72.7845 20.0982 72.6348 20.2729 72.4186 20.3602C72.3729 20.381 72.2357 20.4267 71.8407 20.4641L71.7202 20.4766L71.6827 20.8093L76.5847 21.3913L76.6262 21.0503L76.6221 21.042Z" fill="#008573"/>
<path d="M79.2 21.5368L82.2434 22.5222L82.3473 22.202L81.8276 21.9193C81.6447 21.7613 81.5449 21.5493 81.5283 21.2707C81.5116 20.7385 81.6031 20.1606 81.7985 19.5536L83.2412 15.0965L83.2786 22.9005L84.0603 23.1541L88.43 16.6972L86.9582 21.2416C86.7212 21.9733 86.5175 22.4723 86.3512 22.7259C86.1599 23.0294 85.923 23.1749 85.6278 23.1666C85.5404 23.1666 85.4116 23.1458 85.2369 23.1125L85.1039 23.0835L84.9958 23.4119L89.6566 24.917L89.7605 24.5927L89.6399 24.5345C89.4071 24.4223 89.3198 24.3723 89.2824 24.3474C89.0495 24.1935 88.9456 23.9399 88.9747 23.5699C88.9872 23.2415 89.1119 22.7176 89.3364 22.0108L90.7667 17.5829C90.987 16.8969 91.1949 16.4021 91.3862 16.1027C91.5608 15.82 91.7895 15.6869 92.0805 15.6828C92.2219 15.6911 92.3466 15.7118 92.4588 15.7493L92.6044 15.795L92.7249 15.4208L89.3614 14.3315L85.8814 19.3873L85.9063 13.2131L82.2933 12.0448L82.1769 12.4065L82.3099 12.4606C82.4346 12.5105 82.5386 12.5686 82.63 12.6352C82.8754 12.8015 82.9959 13.0343 82.9959 13.3544C83.0167 13.7536 82.8463 14.502 82.497 15.583L81.2705 19.3789C81.046 20.0774 80.7923 20.6013 80.5138 20.9381C80.3558 21.1501 80.1521 21.2624 79.8901 21.2873L79.3039 21.2125L79.2 21.5327V21.5368Z" fill="#008573"/>
<path d="M92.0555 23.4909C91.752 23.5907 91.4984 23.8152 91.303 24.152C91.0286 24.6342 90.9787 25.1124 91.1575 25.5698C91.3321 26.0147 91.6356 26.3639 92.0597 26.6092C92.359 26.7797 92.6708 26.8669 92.9993 26.8669C93.282 26.8669 93.5772 26.8046 93.8766 26.6757C94.4919 26.4138 95.2819 25.8982 96.2174 25.1499L99.872 22.2353C100.475 21.7489 100.961 21.4245 101.323 21.2665C101.664 21.1169 102.017 21.1127 102.404 21.2499L102.525 21.2915L102.691 21.0005L99.9052 19.4081L99.8013 19.7573L99.8928 19.8197C100.113 19.9652 100.254 20.1357 100.325 20.3394C100.392 20.5306 100.363 20.7302 100.238 20.9464C100.097 21.1917 99.8262 21.4828 99.4396 21.8029L97.3607 23.5076L97.5894 20.3602C97.6227 19.9527 97.7058 19.6242 97.8389 19.3914C97.9636 19.1752 98.1964 18.9216 98.7993 19.2168L98.9282 19.2792L99.1111 18.959L94.5709 16.3604L94.4004 16.6598L94.4878 16.743C94.7954 17.0341 94.9867 17.3209 95.0532 17.5953C95.1239 17.878 95.1322 18.3312 95.0865 18.9424L94.5751 25.5781C93.5814 26.2517 93.1241 26.2516 92.912 26.131C92.8455 26.0936 92.8413 26.0604 92.8372 26.0521C92.8288 26.0188 92.8455 25.9648 92.8829 25.8983C92.8995 25.8692 92.9536 25.7942 93.1199 25.603C93.2654 25.4367 93.3818 25.262 93.465 25.075C93.5814 24.8089 93.6063 24.5386 93.5357 24.2767C93.465 24.0065 93.2862 23.7819 92.9993 23.6198C92.6792 23.4368 92.359 23.3953 92.0472 23.4993L92.0555 23.4909Z" fill="#008573"/>
</svg>
